<svg xmlns="http://www.w3.org/2000/svg" viewBox="0 0 1100 150" font-family="-apple-system, BlinkMacSystemFont, 'Segoe UI', Helvetica, Arial, sans-serif">
<rect x="24" y="30" width="188" height="78" rx="12" fill="#f6f8fa" stroke="#d1d9e0" stroke-width="1.5"/>
<text x="118" y="58" font-size="15" font-weight="700" fill="#1f2328" text-anchor="middle">Trigger</text>
<text x="118" y="77" font-size="11.5" fill="#59636e" text-anchor="middle">shake twice ·</text>
<text x="118" y="92" font-size="11.5" fill="#59636e" text-anchor="middle">floating button</text>
<line x1="216" y1="69.0" x2="236" y2="69.0" stroke="#59636e" stroke-width="1.5"/>
<path d="M 236 69.0 l -8 -4 v 8 z" fill="#59636e"/>
<rect x="240" y="30" width="188" height="78" rx="12" fill="#f6f8fa" stroke="#d1d9e0" stroke-width="1.5"/>
<text x="334" y="58" font-size="15" font-weight="700" fill="#1f2328" text-anchor="middle">Export</text>
<text x="334" y="77" font-size="11.5" fill="#59636e" text-anchor="middle">last N seconds</text>
<text x="334" y="92" font-size="11.5" fill="#59636e" text-anchor="middle">from the ring</text>
<line x1="432" y1="69.0" x2="452" y2="69.0" stroke="#59636e" stroke-width="1.5"/>
<path d="M 452 69.0 l -8 -4 v 8 z" fill="#59636e"/>
<rect x="456" y="30" width="188" height="78" rx="12" fill="#f6f8fa" stroke="#d1d9e0" stroke-width="1.5"/>
<text x="550" y="58" font-size="15" font-weight="700" fill="#1f2328" text-anchor="middle">Report UI</text>
<text x="550" y="77" font-size="11.5" fill="#59636e" text-anchor="middle">preview · trim ·</text>
<text x="550" y="92" font-size="11.5" fill="#59636e" text-anchor="middle">title · device info</text>
<line x1="648" y1="69.0" x2="668" y2="69.0" stroke="#59636e" stroke-width="1.5"/>
<path d="M 668 69.0 l -8 -4 v 8 z" fill="#59636e"/>
<rect x="672" y="30" width="188" height="78" rx="12" fill="#f6f8fa" stroke="#d1d9e0" stroke-width="1.5"/>
<text x="766" y="58" font-size="15" font-weight="700" fill="#1f2328" text-anchor="middle">Share ↑</text>
<text x="766" y="77" font-size="11.5" fill="#59636e" text-anchor="middle">system</text>
<text x="766" y="92" font-size="11.5" fill="#59636e" text-anchor="middle">share sheet</text>
<line x1="864" y1="69.0" x2="884" y2="69.0" stroke="#59636e" stroke-width="1.5"/>
<path d="M 884 69.0 l -8 -4 v 8 z" fill="#59636e"/>
<rect x="888" y="30" width="188" height="78" rx="12" fill="#e8702a1a" stroke="#e8702a" stroke-width="2"/>
<text x="982" y="58" font-size="15" font-weight="700" fill="#e8702a" text-anchor="middle">onReport</text>
<text x="982" y="77" font-size="11.5" fill="#59636e" text-anchor="middle">AI · Slack · Jira ·</text>
<text x="982" y="92" font-size="11.5" fill="#59636e" text-anchor="middle">your backend</text>
<text x="550" y="136" font-size="12" fill="#59636e" text-anchor="middle">the share sheet (save to Photos / Files / AirDrop) and your onReport callback fire from the same tap</text>
</svg>