<svg xmlns="http://www.w3.org/2000/svg" viewBox="0 0 1100 330" font-family="-apple-system, BlinkMacSystemFont, 'Segoe UI', Helvetica, Arial, sans-serif">
<rect x="40" y="120" width="64" height="56" rx="8" fill="none" stroke="#818b98" stroke-width="1.5" stroke-dasharray="5 4" opacity="0.35"/>
<rect x="112" y="120" width="64" height="56" rx="8" fill="none" stroke="#818b98" stroke-width="1.5" stroke-dasharray="5 4" opacity="0.35"/>
<rect x="184" y="120" width="64" height="56" rx="8" fill="none" stroke="#818b98" stroke-width="1.5" stroke-dasharray="5 4" opacity="0.35"/>
<rect x="256" y="120" width="64" height="56" rx="8" fill="none" stroke="#818b98" stroke-width="1.5" stroke-dasharray="5 4" opacity="0.35"/>
<rect x="328" y="120" width="64" height="56" rx="8" fill="none" stroke="#818b98" stroke-width="1.5" stroke-dasharray="5 4" opacity="0.35"/>
<rect x="400" y="120" width="64" height="56" rx="8" fill="#e8702a1a" stroke="#e8702a" stroke-width="2"/>
<rect x="472" y="120" width="64" height="56" rx="8" fill="#e8702a1a" stroke="#e8702a" stroke-width="2"/>
<rect x="544" y="120" width="64" height="56" rx="8" fill="#e8702a1a" stroke="#e8702a" stroke-width="2"/>
<rect x="616" y="120" width="64" height="56" rx="8" fill="#e8702a1a" stroke="#e8702a" stroke-width="2"/>
<line x1="40" y1="200" x2="706" y2="200" stroke="#59636e" stroke-width="1.5"/>
<path d="M 706 200 l -9 -4.5 v 9 z" fill="#59636e"/>
<text x="40" y="218" font-size="12" fill="#59636e">time</text>
<text x="714" y="204" font-size="12" font-weight="600" fill="#1f2328">now</text>
<text x="216" y="106" font-size="13" fill="#59636e" text-anchor="middle">older segments — already deleted</text>
<line x1="680" y1="82" x2="680" y2="116" stroke="#e8702a" stroke-width="2"/>
<text x="680" y="72" font-size="14" font-weight="700" fill="#e8702a" text-anchor="end">💥 bug happens → tester triggers</text>
<path d="M 400 228 v 8 h 280 v -8" fill="none" stroke="#e8702a" stroke-width="2"/>
<text x="540" y="258" font-size="14" font-weight="700" fill="#e8702a" text-anchor="middle">the last N seconds — already recorded</text>
<path d="M 692 148.0 C 740 148.0, 760 148.0, 801 148.0" fill="none" stroke="#59636e" stroke-width="1.5"/>
<path d="M 801 148.0 l -9 -4.5 v 9 z" fill="#59636e"/>
<rect x="810" y="100" width="220" height="96" rx="12" fill="#f6f8fa" stroke="#d1d9e0" stroke-width="1.5"/>
<circle cx="846" cy="148.0" r="16" fill="#e8702a"/>
<path d="M 841.5 140.5 l 13 7.5 l -13 7.5 z" fill="#ffffff"/>
<text x="872" y="144.0" font-size="14" font-weight="700" fill="#1f2328">clip.mp4</text>
<text x="872" y="162.0" font-size="11.5" fill="#59636e">the moments</text>
<text x="872" y="177.0" font-size="11.5" fill="#59636e">before the bug</text>
<text x="40" y="316" font-size="12" fill="#59636e">ReplayKit can’t record retroactively — so FlashbackKit records continuously and keeps only the last N seconds (disk stays bounded).</text>
</svg>